<svg width="15" height="15"><path fill="none" d="M0 0h15v15H0z"/><path d="M2.475 7.112c.175-.918 1.037-1.55 1.975-1.55H6.28a.598.598 0 0 0 .594-.593.598.598 0 0 0-.594-.594H4.512c-1.63 0-3.087 1.194-3.243 2.819a3.122 3.122 0 0 0 3.106 3.431H6.28a.598.598 0 0 0 .594-.594.598.598 0 0 0-.594-.594H4.375a1.943 1.943 0 0 1-1.9-2.325Zm3.15 1.013h3.75A.627.627 0 0 0 10 7.5a.627.627 0 0 0-.625-.625h-3.75A.627.627 0 0 0 5 7.5c0 .344.281.625.625.625Zm4.862-3.75H8.72a.598.598 0 0 0-.594.594c0 .325.269.593.594.593h1.83c.938 0 1.8.632 1.976 1.55a1.943 1.943 0 0 1-1.9 2.325H8.719a.598.598 0 0 0-.594.594c0 .325.269.594.594.594h1.906a3.13 3.13 0 0 0 3.112-3.431c-.156-1.625-1.618-2.819-3.25-2.819Z"/></svg>