<svg width="15" height="15"><path fill="none" d="M0 0h15v15H0z"/><path fill="#000" d="M4.088 3.125c.037.556.13 1.1.28 1.619l-.75.75a9.263 9.263 0 0 1-.474-2.369h.944Zm6.162 7.512c.531.15 1.075.244 1.625.282v.931a9.639 9.639 0 0 1-2.375-.469l.75-.744ZM4.687 1.875H2.5a.627.627 0 0 0-.625.625c0 5.869 4.756 10.625 10.625 10.625a.627.627 0 0 0 .625-.625v-2.181a.627.627 0 0 0-.625-.625 7.13 7.13 0 0 1-2.231-.356.64.64 0 0 0-.638.15l-1.375 1.375a9.469 9.469 0 0 1-4.119-4.12L5.512 5.37a.627.627 0 0 0 .157-.638A7.102 7.102 0 0 1 5.313 2.5a.627.627 0 0 0-.625-.625Z"/></svg>