<?xml version="1.0" standalone="no"?>
<!DOCTYPE svg PUBLIC "-//W3C//DTD SVG 20010904//EN"
 "http://www.w3.org/TR/2001/REC-SVG-20010904/DTD/svg10.dtd">
<svg version="1.0" xmlns="http://www.w3.org/2000/svg"
 width="256.000000pt" height="256.000000pt" viewBox="0 0 256.000000 256.000000"
 preserveAspectRatio="xMidYMid meet">
<metadata>
Created by potrace 1.14, written by Peter Selinger 2001-2017
</metadata>
<g transform="translate(0.000000,256.000000) scale(0.100000,-0.100000)"
fill="#000000" stroke="none">
<path d="M1086 2043 c-1 -1 -92 -3 -201 -3 -176 -1 -205 -4 -239 -21 -68 -33
-106 -82 -122 -154 -10 -47 -4 -1157 6 -1196 15 -54 85 -124 139 -139 42 -11
1148 -15 1206 -4 66 12 136 77 156 145 13 47 12 804 -1 830 -12 22 -43 25 -59
5 -8 -10 -12 -127 -12 -409 -1 -356 -2 -399 -18 -428 -29 -54 -70 -69 -188
-69 -57 0 -103 4 -103 8 0 5 -35 32 -77 60 -123 81 -196 159 -252 269 l-32 62
50 128 c116 296 120 307 109 326 -6 12 -18 17 -36 15 -22 -2 -30 -13 -49 -63
-13 -33 -28 -69 -33 -80 -4 -11 -23 -59 -42 -107 -18 -48 -36 -84 -41 -79 -4
4 -10 28 -13 52 -3 24 -7 55 -10 69 -2 14 -5 83 -5 154 0 131 -7 163 -46 208
-15 16 5 17 348 17 200 0 374 2 386 5 36 8 69 29 99 65 24 29 29 44 31 102 1
54 -3 77 -21 111 -34 64 -94 106 -164 113 -52 6 -761 13 -766 8z m799 -99 c50
-23 74 -67 71 -127 -2 -40 -7 -54 -29 -73 l-26 -22 -413 -1 -412 -1 -52 56
c-43 46 -114 156 -114 177 0 3 212 6 471 6 413 1 475 -1 504 -15z"/>
<path d="M1172 1868 c-7 -7 -12 -19 -12 -28 0 -31 23 -40 102 -40 74 0 79 1
90 25 19 42 -2 55 -91 55 -47 0 -82 -5 -89 -12z"/>
<path d="M1450 1865 c-10 -12 -10 -21 -2 -40 10 -23 18 -25 71 -25 70 0 91 16
73 55 -10 23 -18 25 -71 25 -40 0 -62 -5 -71 -15z"/>
<path d="M1691 1866 c-17 -20 -10 -48 15 -61 32 -16 155 -4 168 18 8 12 8 22
0 35 -15 24 -164 30 -183 8z"/>
<path d="M1556 1294 c-23 -23 -13 -43 63 -118 l72 -72 -74 -75 c-40 -41 -77
-82 -80 -93 -9 -23 9 -46 35 -46 24 0 207 178 212 207 3 15 -21 46 -89 113
-51 52 -100 95 -109 96 -9 1 -23 -4 -30 -12z"/>
</g>
</svg>
